<?xml version="1.0" standalone="no"?>
<!DOCTYPE svg PUBLIC "-//W3C//DTD SVG 20010904//EN"
 "http://www.w3.org/TR/2001/REC-SVG-20010904/DTD/svg10.dtd">
<svg version="1.0" xmlns="http://www.w3.org/2000/svg"
 width="512.000000pt" height="512.000000pt" viewBox="0 0 512.000000 512.000000"
 preserveAspectRatio="xMidYMid meet">

<g transform="translate(0.000000,512.000000) scale(0.100000,-0.100000)"
fill="#000000" stroke="none">
<path d="M850 5104 c-72 -31 -111 -88 -111 -162 -1 -55 14 -98 44 -130 12 -13
187 -127 389 -254 l368 -232 0 -1347 c0 -978 3 -1348 11 -1351 6 -2 49 0 95 5
48 5 115 4 161 -1 51 -6 82 -6 91 1 18 14 18 2790 0 2851 -7 22 -28 55 -48 74
-43 40 -821 531 -870 548 -46 17 -87 17 -130 -2z"/>
<path d="M2395 3361 c-49 -22 -90 -62 -119 -116 -21 -40 -21 -42 -24 -902 l-2
-862 32 -28 c18 -15 72 -67 119 -115 l85 -88 845 0 c550 0 857 4 881 10 55 16
117 68 147 125 l26 50 0 875 c0 987 4 932 -77 1005 -71 65 -71 65 -453 65
l-345 0 0 -178 c0 -161 -2 -181 -18 -195 -27 -24 -322 -25 -346 -1 -13 13 -16
45 -16 195 l0 179 -347 0 c-316 0 -352 -2 -388 -19z m1153 -1337 c66 -61 82
-81 82 -104 0 -18 -8 -35 -22 -44 -31 -22 -41 -20 -77 10 l-31 26 0 -129 c0
-83 -5 -137 -13 -153 -16 -31 -61 -39 -88 -14 -17 15 -19 32 -19 157 0 133 -1
139 -17 125 -36 -31 -60 -39 -87 -27 -28 13 -40 39 -32 67 4 10 42 51 87 90
105 94 110 94 217 -4z m537 0 c92 -81 103 -106 65 -144 -26 -26 -38 -25 -83 5
l-37 26 0 -140 c0 -150 -7 -171 -53 -171 -48 0 -52 10 -57 165 l-5 145 -38
-27 c-36 -26 -40 -26 -65 -12 -18 10 -28 25 -30 44 -4 26 6 39 80 107 61 57
90 78 110 78 20 0 50 -20 113 -76z"/>
<path d="M1630 1409 c-286 -37 -533 -263 -595 -544 -26 -114 -17 -273 20 -384
100 -297 399 -498 711 -478 181 12 326 79 459 212 143 142 213 326 202 529 -9
163 -60 294 -163 419 -147 179 -400 277 -634 246z m230 -338 c76 -29 128 -68
177 -135 57 -77 76 -145 71 -249 -10 -220 -187 -378 -409 -365 -324 19 -481
411 -260 651 46 50 139 103 203 117 61 13 156 4 218 -19z"/>
<path d="M2649 888 c0 -2 -1 -83 -2 -180 -2 -140 1 -179 11 -183 27 -10 1386
-5 1432 6 89 20 142 85 144 174 1 70 -38 135 -97 164 -43 21 -53 21 -765 21
-397 0 -722 -1 -723 -2z"/>
</g>
</svg>
