<?xml version="1.0" standalone="no"?>
<!DOCTYPE svg PUBLIC "-//W3C//DTD SVG 20010904//EN"
 "http://www.w3.org/TR/2001/REC-SVG-20010904/DTD/svg10.dtd">
<svg version="1.0" xmlns="http://www.w3.org/2000/svg"
 width="512.000000pt" height="512.000000pt" viewBox="0 0 512.000000 512.000000"
 preserveAspectRatio="xMidYMid meet">

<g transform="translate(0.000000,512.000000) scale(0.100000,-0.100000)"
fill="#000000" stroke="none">
<path d="M985 4935 l-25 -24 0 -533 0 -534 -87 -12 c-129 -17 -182 -38 -198
-76 -7 -17 -11 -44 -8 -61 4 -28 0 -33 -54 -64 -32 -19 -77 -53 -101 -75 l-43
-40 -49 13 c-64 16 -83 9 -121 -45 -73 -107 -126 -261 -136 -400 -7 -89 7
-115 68 -135 42 -14 43 -15 64 -94 12 -44 30 -97 39 -119 17 -38 17 -39 -8
-75 -37 -53 -33 -80 20 -146 97 -119 283 -241 387 -252 47 -6 63 4 97 55 14
21 20 22 73 16 l57 -7 0 -1059 0 -1059 25 -24 24 -25 1551 0 1551 0 24 25 25
24 0 763 0 762 370 371 c424 425 425 427 425 570 0 67 -4 89 -28 137 -73 148
-247 215 -404 156 -50 -18 -79 -42 -210 -171 l-153 -151 0 455 0 454 -703 702
-702 703 -873 0 -873 0 -24 -25z m1655 -790 l0 -656 25 -24 24 -25 656 0 655
0 0 -478 0 -477 -505 -505 -505 -505 -101 -230 c-56 -126 -115 -260 -132 -297
l-30 -68 -699 0 -699 0 -24 -25 c-16 -15 -25 -36 -25 -55 0 -19 9 -40 25 -55
l24 -25 734 0 735 0 318 149 c243 113 330 159 364 190 25 23 152 148 282 279
l238 237 0 -628 0 -627 -1440 0 -1440 0 0 990 0 990 21 -21 c30 -30 91 -21
193 29 94 47 195 127 260 207 54 66 57 93 19 147 l-26 39 22 47 c12 26 30 79
40 117 17 68 19 70 57 83 66 21 77 44 70 137 -10 132 -50 259 -117 371 -48 80
-67 90 -134 74 l-54 -13 -43 39 c-24 22 -69 56 -101 75 -54 31 -58 36 -54 64
8 54 -15 90 -69 109 -26 9 -56 16 -66 16 -17 0 -18 23 -18 490 l0 490 760 0
760 0 0 -655z m705 -5 l540 -540 -543 0 -542 0 0 540 c0 297 1 540 3 540 1 0
245 -243 542 -540z m-2281 -466 c44 -6 46 -8 46 -40 0 -59 18 -82 96 -119 50
-24 96 -58 146 -106 67 -64 76 -70 108 -66 19 3 43 8 52 12 13 5 22 -4 42 -42
24 -48 49 -127 60 -189 5 -30 2 -33 -40 -49 -52 -20 -59 -31 -69 -108 -8 -71
-35 -151 -69 -210 -33 -55 -33 -87 -1 -125 l25 -30 -58 -54 c-32 -29 -84 -67
-114 -83 l-56 -29 -36 38 c-36 38 -36 39 -88 30 -68 -11 -208 -11 -276 0 -52
9 -52 8 -88 -30 l-36 -38 -56 29 c-30 16 -82 54 -114 83 l-58 54 25 30 c33 39
32 60 -10 143 -36 73 -65 169 -65 218 0 44 -16 64 -64 82 -42 16 -45 19 -40
49 11 62 36 141 60 189 20 38 29 47 42 42 9 -4 33 -9 52 -12 32 -4 41 2 106
65 48 45 97 81 146 105 80 40 98 62 98 122 0 31 3 34 33 38 56 7 153 7 201 1z
m3656 -866 c75 -51 99 -132 62 -204 -12 -23 -297 -315 -704 -722 l-683 -682
-113 113 -112 112 693 691 c380 381 701 697 712 703 35 19 109 13 145 -11z
m-1470 -1691 c0 -7 -245 -128 -289 -142 -16 -5 -7 21 52 155 l70 161 84 -83
c46 -45 83 -86 83 -91z"/>
<path d="M1915 4634 c-86 -21 -108 -30 -125 -52 -11 -13 -20 -35 -20 -48 0
-15 -11 -29 -33 -43 -18 -11 -41 -29 -51 -40 -13 -14 -26 -18 -55 -14 -21 3
-48 0 -59 -6 -50 -27 -119 -191 -129 -306 -5 -69 -4 -74 20 -99 14 -14 32 -26
39 -26 8 0 23 -29 34 -67 20 -61 20 -71 7 -96 -22 -44 -8 -80 57 -146 62 -64
120 -102 202 -133 43 -16 56 -17 80 -7 16 6 32 18 37 27 6 11 26 15 81 15 55
0 75 -4 81 -15 5 -9 21 -21 37 -27 54 -23 187 43 282 140 65 66 79 102 57 146
-13 25 -13 35 7 96 11 38 26 67 34 67 7 0 25 12 39 26 24 25 25 30 20 99 -10
115 -79 279 -129 306 -11 6 -38 9 -59 6 -29 -4 -42 0 -55 14 -10 11 -33 29
-51 40 -22 14 -33 28 -33 44 0 32 -37 70 -80 85 -37 12 -202 22 -235 14z m153
-184 c5 -35 18 -48 75 -77 27 -13 71 -45 97 -69 37 -35 54 -44 82 -44 32 0 37
-4 52 -40 22 -55 20 -68 -13 -99 -20 -19 -30 -40 -35 -76 -4 -28 -21 -81 -39
-118 -27 -61 -29 -72 -19 -100 14 -36 3 -52 -53 -83 -33 -18 -34 -18 -56 1
-16 15 -32 19 -68 16 -59 -5 -123 -5 -182 0 -36 3 -52 -1 -68 -16 -22 -19 -23
-19 -56 -1 -56 31 -67 47 -54 85 10 28 8 40 -19 99 -17 37 -34 89 -38 117 -5
36 -15 57 -35 76 -33 31 -35 44 -13 99 15 36 20 40 52 40 28 0 45 9 82 44 26
24 67 54 91 66 59 30 79 49 79 75 0 32 8 36 75 33 55 -3 60 -5 63 -28z"/>
<path d="M1892 4294 c-91 -45 -138 -130 -130 -234 6 -77 46 -144 112 -185 44
-27 58 -30 126 -30 68 0 82 3 126 30 30 19 60 49 79 79 27 44 30 58 30 126 0
68 -3 82 -30 126 -66 106 -202 145 -313 88z m165 -156 c51 -48 15 -138 -56
-138 -47 0 -81 32 -81 79 0 72 84 109 137 59z"/>
<path d="M1945 3095 c-16 -15 -25 -36 -25 -55 0 -19 9 -40 25 -55 l24 -25 351
0 351 0 24 25 c16 15 25 36 25 55 0 19 -9 40 -25 55 l-24 25 -351 0 -351 0
-24 -25z"/>
<path d="M1785 2775 c-16 -15 -25 -36 -25 -55 0 -19 9 -40 25 -55 l24 -25 991
0 991 0 24 25 c16 15 25 36 25 55 0 19 -9 40 -25 55 l-24 25 -991 0 -991 0
-24 -25z"/>
<path d="M1705 2455 c-16 -15 -25 -36 -25 -55 0 -19 9 -40 25 -55 l24 -25 991
0 991 0 24 25 c16 15 25 36 25 55 0 19 -9 40 -25 55 l-24 25 -991 0 -991 0
-24 -25z"/>
<path d="M1305 2135 c-16 -15 -25 -36 -25 -55 0 -19 9 -40 25 -55 l24 -25
1029 0 c1019 0 1028 0 1050 20 40 38 37 93 -7 127 -12 10 -252 12 -1044 13
l-1028 0 -24 -25z"/>
<path d="M1305 1815 c-16 -15 -25 -36 -25 -55 0 -19 9 -40 25 -55 l24 -25 871
0 871 0 24 25 c16 15 25 36 25 55 0 19 -9 40 -25 55 l-24 25 -871 0 -871 0
-24 -25z"/>
<path d="M1305 1495 c-16 -15 -25 -36 -25 -55 0 -19 9 -40 25 -55 l24 -25 711
0 711 0 24 25 c16 15 25 36 25 55 0 19 -9 40 -25 55 l-24 25 -711 0 -711 0
-24 -25z"/>
<path d="M1305 1175 c-16 -15 -25 -36 -25 -55 0 -19 9 -40 25 -55 l24 -25 671
0 671 0 24 25 c33 32 33 78 0 110 l-24 25 -671 0 -671 0 -24 -25z"/>
<path d="M889 3347 c-150 -43 -243 -163 -244 -317 0 -66 5 -85 33 -142 58
-118 161 -182 292 -182 131 0 234 64 292 182 80 162 15 353 -145 432 -73 36
-160 46 -228 27z m179 -183 c37 -29 72 -93 72 -134 0 -37 -34 -104 -65 -128
-73 -58 -161 -50 -227 18 -42 45 -55 97 -39 157 12 44 64 100 107 113 46 15
113 3 152 -26z"/>
</g>
</svg>
