<?xml version="1.0" standalone="no"?>
<!DOCTYPE svg PUBLIC "-//W3C//DTD SVG 20010904//EN"
 "http://www.w3.org/TR/2001/REC-SVG-20010904/DTD/svg10.dtd">
<svg version="1.0" xmlns="http://www.w3.org/2000/svg"
 width="512.000000pt" height="512.000000pt" viewBox="0 0 512.000000 512.000000"
 preserveAspectRatio="xMidYMid meet">

<g transform="translate(0.000000,512.000000) scale(0.100000,-0.100000)"
fill="#000000" stroke="none">
<path d="M2370 5113 c-379 -36 -661 -116 -980 -278 -378 -192 -718 -497 -965
-865 -162 -242 -312 -598 -369 -880 -43 -212 -51 -295 -51 -530 0 -312 34
-526 126 -805 53 -159 173 -417 255 -545 205 -322 503 -620 824 -824 100 -64
351 -186 475 -232 129 -47 369 -107 515 -129 485 -70 1003 9 1448 221 286 136
489 280 718 508 217 218 355 408 488 677 309 621 350 1331 115 1993 -47 133
-163 373 -235 486 -211 333 -537 653 -856 843 -413 246 -871 371 -1338 365
-74 0 -151 -3 -170 -5z m365 -513 c492 -46 926 -249 1271 -594 610 -610 772
-1520 411 -2309 -93 -201 -242 -412 -411 -582 -621 -624 -1557 -779 -2351
-390 -928 455 -1370 1542 -1025 2519 68 191 165 371 295 545 419 561 1120 875
1810 811z"/>
<path d="M2479 3827 c-222 -83 -234 -379 -19 -476 124 -56 282 8 338 138 19
45 19 145 0 191 -21 50 -63 96 -114 126 -54 32 -150 41 -205 21z"/>
<path d="M2455 3046 c-28 -12 -65 -40 -84 -61 -69 -79 -66 -39 -69 -779 -2
-462 1 -686 8 -723 14 -66 59 -128 125 -168 43 -26 57 -30 124 -30 65 0 83 4
122 27 53 31 94 76 118 128 14 31 16 115 16 735 0 775 4 730 -66 810 -46 52
-119 85 -189 85 -37 0 -72 -8 -105 -24z"/>
</g>
</svg>
