<?xml version="1.0" standalone="no"?>
<!DOCTYPE svg PUBLIC "-//W3C//DTD SVG 20010904//EN"
 "http://www.w3.org/TR/2001/REC-SVG-20010904/DTD/svg10.dtd">
<svg version="1.0" xmlns="http://www.w3.org/2000/svg"
 width="150.000000pt" height="150.000000pt" viewBox="0 0 150.000000 150.000000"
 preserveAspectRatio="xMidYMid meet">

<g transform="translate(0.000000,150.000000) scale(0.100000,-0.100000)"
fill="#315A9D" stroke="none">
<path d="M303 1300 c-63 -38 -63 -36 -63 -493 0 -414 0 -414 23 -448 46 -70
44 -70 504 -67 398 3 412 4 440 24 63 46 63 48 63 493 0 391 -1 404 -21 441
-41 72 -28 70 -496 70 -397 0 -420 -1 -450 -20z m890 -9 c63 -41 62 -29 65
-446 2 -209 0 -400 -3 -424 -5 -32 -16 -54 -40 -78 l-33 -33 -426 0 -426 0
-38 34 -37 34 -3 416 c-3 460 -3 457 61 496 30 19 53 20 442 20 382 0 412 -1
438 -19z"/>
<path d="M754 1155 c-56 -33 -74 -75 -74 -169 l0 -76 -65 0 -65 0 0 -65 0 -65
65 0 65 0 0 -175 0 -175 70 0 70 0 2 172 3 173 60 3 c33 2 63 6 66 10 4 4 10
33 14 65 l6 57 -75 0 -76 0 0 54 c0 76 18 96 98 103 l62 6 0 53 0 54 -92 0
c-81 0 -98 -3 -134 -25z"/>
</g>
</svg>
