<?xml version="1.0" standalone="no"?>
<!DOCTYPE svg PUBLIC "-//W3C//DTD SVG 20010904//EN"
 "http://www.w3.org/TR/2001/REC-SVG-20010904/DTD/svg10.dtd">
<svg version="1.0" xmlns="http://www.w3.org/2000/svg"
 width="757.000000pt" height="272.000000pt" viewBox="0 0 757.000000 272.000000"
 preserveAspectRatio="xMidYMid meet">

<g transform="translate(0.000000,272.000000) scale(0.100000,-0.100000)"
fill="#000000" stroke="none">
<path d="M1322 1945 l3 -40 300 -5 300 -5 60 -29 c33 -17 86 -55 118 -85 48
-46 61 -67 77 -120 56 -181 -17 -349 -187 -433 l-68 -33 -252 -3 -253 -3 0
-44 c0 -52 -5 -47 200 -165 80 -45 183 -108 230 -140 47 -31 105 -67 128 -79
24 -12 67 -39 95 -59 45 -33 59 -37 121 -40 l71 -3 -30 26 c-16 14 -61 41
-100 62 -38 20 -88 48 -110 63 -22 15 -137 85 -255 156 l-215 129 170 7 c149
6 179 10 245 33 99 36 142 66 210 148 48 56 63 84 86 155 26 83 27 91 16 166
-7 43 -21 97 -32 120 -32 66 -122 159 -187 193 -106 55 -159 63 -466 66 l-278
2 3 -40z"/>
<path d="M2420 1940 l0 -40 525 0 525 0 0 40 0 40 -525 0 -525 0 0 -40z"/>
<path d="M3677 1773 c46 -115 92 -230 102 -258 23 -62 118 -299 136 -340 8
-16 56 -138 108 -270 l95 -240 41 -3 c41 -3 42 -3 65 50 13 29 31 78 41 108
10 30 21 60 25 65 4 6 20 44 35 85 15 41 51 136 81 210 29 74 56 147 60 163 6
26 5 27 -33 27 -38 0 -40 -1 -58 -52 -57 -160 -205 -523 -214 -526 -6 -2 -11
1 -11 7 0 6 -13 39 -28 73 -16 35 -75 179 -131 321 -56 142 -111 273 -121 290
-11 18 -20 39 -20 47 0 8 -25 76 -56 150 -30 74 -67 167 -81 205 -32 89 -38
95 -83 95 l-37 0 84 -207z"/>
<path d="M4620 1940 l0 -40 530 0 530 0 0 40 0 40 -530 0 -530 0 0 -40z"/>
<path d="M5802 1323 l3 -658 340 0 340 0 3 43 3 42 -305 0 -306 0 0 615 0 615
-40 0 -40 0 2 -657z"/>
<path d="M2450 1362 c-6 -2 -10 -129 -10 -353 l0 -349 505 0 505 0 0 45 0 45
-465 0 -465 0 0 265 0 265 248 1 c136 0 348 2 472 2 l225 2 3 40 3 40 -506 0
c-278 0 -509 -1 -515 -3z"/>
<path d="M4650 1015 l0 -355 505 0 505 0 0 45 0 45 -465 0 -465 0 2 265 3 266
456 -1 c251 0 464 2 473 6 11 4 16 18 16 45 l0 39 -515 0 -515 0 0 -355z"/>
</g>
</svg>
